<svg id="svg" version="1.1" width="639" height="639" xmlns="http://www.w3.org/2000/svg"><path d="M0.000 319.500 L 0.000 639.000 319.500 639.000 L 639.000 639.000 639.000 319.500 L 639.000 0.000 319.500 0.000 L 0.000 0.000 0.000 319.500 M237.500 99.301 C 283.328 99.639,286.057 99.923,306.941 106.535 C 353.681 121.333,393.210 157.995,411.488 203.500 C 435.471 263.205,423.382 330.702,380.035 379.117 C 358.278 403.419,322.094 424.349,292.000 430.041 C 288.425 430.717,285.126 431.606,284.668 432.017 C 284.211 432.427,302.368 467.287,325.017 509.483 C 347.666 551.679,365.815 586.552,365.349 586.979 C 364.034 588.183,350.001 589.974,333.749 591.012 C 318.189 592.007,285.145 590.790,280.837 589.064 C 279.552 588.548,278.838 588.098,279.251 588.063 C 279.664 588.029,253.451 534.901,221.001 470.002 C 188.550 405.103,162.000 351.553,162.000 351.002 C 162.000 350.345,181.140 350.000,217.606 350.000 C 280.181 350.000,278.785 350.136,294.500 342.517 C 310.846 334.591,324.326 321.106,332.452 304.549 C 338.306 292.619,340.016 285.861,340.684 272.000 C 341.870 247.398,333.615 225.578,316.737 208.700 C 309.380 201.343,304.173 197.607,294.498 192.744 C 280.263 185.589,287.288 186.000,179.223 186.000 L 81.810 186.000 84.556 181.250 C 99.684 155.085,124.382 126.702,149.178 106.989 L 159.855 98.500 177.678 98.745 C 187.480 98.880,214.400 99.130,237.500 99.301 " stroke="none" fill="black" fill-rule="evenodd"/></svg>